<mxfile host="app.diagrams.net" modified="2023-04-07T08:32:03.060Z" agent="Mozilla/5.0 (Windows NT 10.0; Win64; x64) AppleWebKit/537.36 (KHTML, like Gecko) Chrome/111.0.0.0 Safari/537.36 Edg/111.0.1661.62" etag="yZepJJKI8Nnlc8xeGwk8" version="21.1.5" type="github" pages="2">
  <diagram name="登录功能活动图" id="0783ab3e-0a74-02c8-0abd-f7b4e66b4bec">
    <mxGraphModel dx="1313" dy="726" grid="1" gridSize="10" guides="1" tooltips="1" connect="1" arrows="1" fold="1" page="1" pageScale="1" pageWidth="850" pageHeight="1100" background="none" math="0" shadow="0">
      <root>
        <mxCell id="0" />
        <mxCell id="1" parent="0" />
        <mxCell id="1c1d494c118603dd-1" value="在线音乐网站系统登录功能活动图" style="swimlane;html=1;childLayout=stackLayout;startSize=20;rounded=0;shadow=0;comic=0;labelBackgroundColor=none;strokeWidth=1;fontFamily=Verdana;fontSize=12;align=center;" parent="1" vertex="1">
          <mxGeometry x="40" y="20" width="750" height="990" as="geometry">
            <mxRectangle x="40" y="20" width="220" height="30" as="alternateBounds" />
          </mxGeometry>
        </mxCell>
        <mxCell id="1c1d494c118603dd-2" value="用户" style="swimlane;html=1;startSize=20;" parent="1c1d494c118603dd-1" vertex="1">
          <mxGeometry y="20" width="250" height="970" as="geometry" />
        </mxCell>
        <mxCell id="1c1d494c118603dd-6" value="Action" style="rounded=1;whiteSpace=wrap;html=1;shadow=0;comic=0;labelBackgroundColor=none;strokeWidth=1;fontFamily=Verdana;fontSize=12;align=center;arcSize=50;" parent="1c1d494c118603dd-2" vertex="1">
          <mxGeometry x="70" y="230" width="100" height="30" as="geometry" />
        </mxCell>
        <mxCell id="MSK4sh7vPUqRXLUH3ntp-32" value="comment" style="shape=note;whiteSpace=wrap;html=1;rounded=0;shadow=0;comic=0;labelBackgroundColor=none;strokeWidth=1;fontFamily=Verdana;fontSize=12;align=center;size=20;" vertex="1" parent="1c1d494c118603dd-2">
          <mxGeometry x="21.5" y="650" width="95" height="45" as="geometry" />
        </mxCell>
        <mxCell id="MSK4sh7vPUqRXLUH3ntp-45" style="rounded=0;orthogonalLoop=1;jettySize=auto;html=1;exitX=0.5;exitY=1;exitDx=0;exitDy=0;exitPerimeter=0;" edge="1" parent="1c1d494c118603dd-2" source="MSK4sh7vPUqRXLUH3ntp-33">
          <mxGeometry relative="1" as="geometry">
            <mxPoint x="250" y="739.9999999999998" as="targetPoint" />
          </mxGeometry>
        </mxCell>
        <mxCell id="MSK4sh7vPUqRXLUH3ntp-33" value="collect" style="shape=note;whiteSpace=wrap;html=1;rounded=0;shadow=0;comic=0;labelBackgroundColor=none;strokeWidth=1;fontFamily=Verdana;fontSize=12;align=center;size=20;" vertex="1" parent="1c1d494c118603dd-2">
          <mxGeometry x="141.5" y="650" width="95" height="45" as="geometry" />
        </mxCell>
        <mxCell id="1c1d494c118603dd-3" value="管理员" style="swimlane;html=1;startSize=20;" parent="1c1d494c118603dd-1" vertex="1">
          <mxGeometry x="250" y="20" width="250" height="970" as="geometry" />
        </mxCell>
        <mxCell id="MSK4sh7vPUqRXLUH3ntp-14" style="rounded=0;orthogonalLoop=1;jettySize=auto;html=1;" edge="1" parent="1c1d494c118603dd-3" source="MSK4sh7vPUqRXLUH3ntp-3">
          <mxGeometry relative="1" as="geometry">
            <mxPoint y="290" as="targetPoint" />
          </mxGeometry>
        </mxCell>
        <mxCell id="MSK4sh7vPUqRXLUH3ntp-3" value="Action" style="rounded=1;whiteSpace=wrap;html=1;shadow=0;comic=0;labelBackgroundColor=none;strokeWidth=1;fontFamily=Verdana;fontSize=12;align=center;arcSize=50;" vertex="1" parent="1c1d494c118603dd-3">
          <mxGeometry x="75" y="230" width="100" height="30" as="geometry" />
        </mxCell>
        <mxCell id="MSK4sh7vPUqRXLUH3ntp-9" style="edgeStyle=orthogonalEdgeStyle;rounded=0;orthogonalLoop=1;jettySize=auto;html=1;exitX=0.5;exitY=1;exitDx=0;exitDy=0;entryX=0.5;entryY=0;entryDx=0;entryDy=0;" edge="1" parent="1c1d494c118603dd-3" source="MSK4sh7vPUqRXLUH3ntp-6" target="MSK4sh7vPUqRXLUH3ntp-8">
          <mxGeometry relative="1" as="geometry" />
        </mxCell>
        <mxCell id="MSK4sh7vPUqRXLUH3ntp-17" style="edgeStyle=orthogonalEdgeStyle;rounded=0;orthogonalLoop=1;jettySize=auto;html=1;entryX=1;entryY=0.5;entryDx=0;entryDy=0;" edge="1" parent="1c1d494c118603dd-3" source="MSK4sh7vPUqRXLUH3ntp-6" target="MSK4sh7vPUqRXLUH3ntp-3">
          <mxGeometry relative="1" as="geometry" />
        </mxCell>
        <mxCell id="MSK4sh7vPUqRXLUH3ntp-6" value="if(success)" style="rhombus;whiteSpace=wrap;html=1;" vertex="1" parent="1c1d494c118603dd-3">
          <mxGeometry x="-38.5" y="330" width="80" height="40" as="geometry" />
        </mxCell>
        <mxCell id="MSK4sh7vPUqRXLUH3ntp-23" style="edgeStyle=orthogonalEdgeStyle;rounded=0;orthogonalLoop=1;jettySize=auto;html=1;exitX=0.5;exitY=1;exitDx=0;exitDy=0;entryX=0.5;entryY=0;entryDx=0;entryDy=0;" edge="1" parent="1c1d494c118603dd-3" source="MSK4sh7vPUqRXLUH3ntp-8" target="MSK4sh7vPUqRXLUH3ntp-22">
          <mxGeometry relative="1" as="geometry" />
        </mxCell>
        <mxCell id="MSK4sh7vPUqRXLUH3ntp-8" value="success" style="rounded=1;whiteSpace=wrap;html=1;shadow=0;comic=0;labelBackgroundColor=none;strokeWidth=1;fontFamily=Verdana;fontSize=12;align=center;arcSize=50;" vertex="1" parent="1c1d494c118603dd-3">
          <mxGeometry x="-48.5" y="390" width="100" height="30" as="geometry" />
        </mxCell>
        <mxCell id="MSK4sh7vPUqRXLUH3ntp-15" style="edgeStyle=orthogonalEdgeStyle;rounded=0;orthogonalLoop=1;jettySize=auto;html=1;entryX=0.5;entryY=0;entryDx=0;entryDy=0;" edge="1" parent="1c1d494c118603dd-3" source="MSK4sh7vPUqRXLUH3ntp-12" target="MSK4sh7vPUqRXLUH3ntp-6">
          <mxGeometry relative="1" as="geometry" />
        </mxCell>
        <mxCell id="MSK4sh7vPUqRXLUH3ntp-12" value="" style="whiteSpace=wrap;html=1;rounded=0;shadow=0;comic=0;labelBackgroundColor=none;strokeWidth=1;fillColor=#000000;fontFamily=Verdana;fontSize=12;align=center;rotation=0;" vertex="1" parent="1c1d494c118603dd-3">
          <mxGeometry x="-72" y="290" width="147" height="10" as="geometry" />
        </mxCell>
        <mxCell id="MSK4sh7vPUqRXLUH3ntp-25" style="edgeStyle=orthogonalEdgeStyle;rounded=0;orthogonalLoop=1;jettySize=auto;html=1;exitX=0.5;exitY=1;exitDx=0;exitDy=0;entryX=0.462;entryY=0.011;entryDx=0;entryDy=0;entryPerimeter=0;" edge="1" parent="1c1d494c118603dd-3" source="MSK4sh7vPUqRXLUH3ntp-22" target="1c1d494c118603dd-25">
          <mxGeometry relative="1" as="geometry" />
        </mxCell>
        <mxCell id="MSK4sh7vPUqRXLUH3ntp-22" value="function" style="rounded=0;whiteSpace=wrap;html=1;shadow=0;comic=0;labelBackgroundColor=none;strokeWidth=1;fontFamily=Verdana;fontSize=12;align=center;arcSize=50;" vertex="1" parent="1c1d494c118603dd-3">
          <mxGeometry x="-33.5" y="460" width="70" height="30" as="geometry" />
        </mxCell>
        <mxCell id="MSK4sh7vPUqRXLUH3ntp-35" style="edgeStyle=orthogonalEdgeStyle;rounded=0;orthogonalLoop=1;jettySize=auto;html=1;exitX=0.5;exitY=1;exitDx=0;exitDy=0;exitPerimeter=0;entryX=0.5;entryY=0;entryDx=0;entryDy=0;" edge="1" parent="1c1d494c118603dd-3" source="1c1d494c118603dd-25" target="MSK4sh7vPUqRXLUH3ntp-34">
          <mxGeometry relative="1" as="geometry" />
        </mxCell>
        <mxCell id="1c1d494c118603dd-25" value="Full functionality" style="shape=note;whiteSpace=wrap;html=1;rounded=0;shadow=0;comic=0;labelBackgroundColor=none;strokeWidth=1;fontFamily=Verdana;fontSize=12;align=center;size=20;" parent="1c1d494c118603dd-3" vertex="1">
          <mxGeometry x="-48.5" y="520" width="115" height="50" as="geometry" />
        </mxCell>
        <mxCell id="MSK4sh7vPUqRXLUH3ntp-46" value="" style="rounded=0;orthogonalLoop=1;jettySize=auto;html=1;" edge="1" parent="1c1d494c118603dd-3" source="MSK4sh7vPUqRXLUH3ntp-29" target="MSK4sh7vPUqRXLUH3ntp-43">
          <mxGeometry relative="1" as="geometry" />
        </mxCell>
        <mxCell id="MSK4sh7vPUqRXLUH3ntp-29" value="personal info" style="shape=note;whiteSpace=wrap;html=1;rounded=0;shadow=0;comic=0;labelBackgroundColor=none;strokeWidth=1;fontFamily=Verdana;fontSize=12;align=center;size=20;" vertex="1" parent="1c1d494c118603dd-3">
          <mxGeometry x="21.5" y="650" width="95" height="45" as="geometry" />
        </mxCell>
        <mxCell id="MSK4sh7vPUqRXLUH3ntp-47" style="rounded=0;orthogonalLoop=1;jettySize=auto;html=1;exitX=0.5;exitY=1;exitDx=0;exitDy=0;exitPerimeter=0;entryX=0.5;entryY=0;entryDx=0;entryDy=0;" edge="1" parent="1c1d494c118603dd-3" source="MSK4sh7vPUqRXLUH3ntp-31" target="MSK4sh7vPUqRXLUH3ntp-43">
          <mxGeometry relative="1" as="geometry" />
        </mxCell>
        <mxCell id="MSK4sh7vPUqRXLUH3ntp-31" value="other" style="shape=note;whiteSpace=wrap;html=1;rounded=0;shadow=0;comic=0;labelBackgroundColor=none;strokeWidth=1;fontFamily=Verdana;fontSize=12;align=center;size=20;" vertex="1" parent="1c1d494c118603dd-3">
          <mxGeometry x="136.5" y="650" width="95" height="45" as="geometry" />
        </mxCell>
        <mxCell id="MSK4sh7vPUqRXLUH3ntp-38" style="rounded=0;orthogonalLoop=1;jettySize=auto;html=1;exitX=0.5;exitY=1;exitDx=0;exitDy=0;entryX=0.5;entryY=0;entryDx=0;entryDy=0;entryPerimeter=0;" edge="1" parent="1c1d494c118603dd-3" source="MSK4sh7vPUqRXLUH3ntp-34" target="MSK4sh7vPUqRXLUH3ntp-29">
          <mxGeometry relative="1" as="geometry" />
        </mxCell>
        <mxCell id="MSK4sh7vPUqRXLUH3ntp-39" style="rounded=0;orthogonalLoop=1;jettySize=auto;html=1;exitX=0.5;exitY=1;exitDx=0;exitDy=0;entryX=0.5;entryY=0;entryDx=0;entryDy=0;entryPerimeter=0;" edge="1" parent="1c1d494c118603dd-3" source="MSK4sh7vPUqRXLUH3ntp-34" target="MSK4sh7vPUqRXLUH3ntp-31">
          <mxGeometry relative="1" as="geometry" />
        </mxCell>
        <mxCell id="MSK4sh7vPUqRXLUH3ntp-34" value="" style="whiteSpace=wrap;html=1;rounded=0;shadow=0;comic=0;labelBackgroundColor=none;strokeWidth=1;fillColor=#000000;fontFamily=Verdana;fontSize=12;align=center;rotation=0;" vertex="1" parent="1c1d494c118603dd-3">
          <mxGeometry x="-72" y="600" width="147" height="10" as="geometry" />
        </mxCell>
        <mxCell id="MSK4sh7vPUqRXLUH3ntp-42" value="outLogin" style="rounded=1;whiteSpace=wrap;html=1;shadow=0;comic=0;labelBackgroundColor=none;strokeWidth=1;fontFamily=Verdana;fontSize=12;align=center;arcSize=50;" vertex="1" parent="1c1d494c118603dd-3">
          <mxGeometry x="-48.5" y="810" width="100" height="30" as="geometry" />
        </mxCell>
        <mxCell id="MSK4sh7vPUqRXLUH3ntp-48" style="edgeStyle=orthogonalEdgeStyle;rounded=0;orthogonalLoop=1;jettySize=auto;html=1;exitX=0.5;exitY=1;exitDx=0;exitDy=0;entryX=0.5;entryY=0;entryDx=0;entryDy=0;" edge="1" parent="1c1d494c118603dd-3" source="MSK4sh7vPUqRXLUH3ntp-43" target="MSK4sh7vPUqRXLUH3ntp-42">
          <mxGeometry relative="1" as="geometry" />
        </mxCell>
        <mxCell id="MSK4sh7vPUqRXLUH3ntp-43" value="" style="whiteSpace=wrap;html=1;rounded=0;shadow=0;comic=0;labelBackgroundColor=none;strokeWidth=1;fillColor=#000000;fontFamily=Verdana;fontSize=12;align=center;rotation=0;" vertex="1" parent="1c1d494c118603dd-3">
          <mxGeometry x="-72" y="740" width="147" height="10" as="geometry" />
        </mxCell>
        <mxCell id="MSK4sh7vPUqRXLUH3ntp-4" style="edgeStyle=orthogonalEdgeStyle;rounded=0;orthogonalLoop=1;jettySize=auto;html=1;entryX=0.5;entryY=0;entryDx=0;entryDy=0;" edge="1" parent="1c1d494c118603dd-1" source="60571a20871a0731-3" target="1c1d494c118603dd-6">
          <mxGeometry relative="1" as="geometry" />
        </mxCell>
        <mxCell id="MSK4sh7vPUqRXLUH3ntp-5" style="edgeStyle=orthogonalEdgeStyle;rounded=0;orthogonalLoop=1;jettySize=auto;html=1;entryX=0.5;entryY=0;entryDx=0;entryDy=0;" edge="1" parent="1c1d494c118603dd-1" source="60571a20871a0731-3" target="MSK4sh7vPUqRXLUH3ntp-3">
          <mxGeometry relative="1" as="geometry" />
        </mxCell>
        <mxCell id="MSK4sh7vPUqRXLUH3ntp-13" style="rounded=0;orthogonalLoop=1;jettySize=auto;html=1;entryX=0.5;entryY=0;entryDx=0;entryDy=0;" edge="1" parent="1c1d494c118603dd-1" source="1c1d494c118603dd-6" target="MSK4sh7vPUqRXLUH3ntp-12">
          <mxGeometry relative="1" as="geometry" />
        </mxCell>
        <mxCell id="MSK4sh7vPUqRXLUH3ntp-16" style="edgeStyle=orthogonalEdgeStyle;rounded=0;orthogonalLoop=1;jettySize=auto;html=1;entryX=0;entryY=0.5;entryDx=0;entryDy=0;" edge="1" parent="1c1d494c118603dd-1" source="MSK4sh7vPUqRXLUH3ntp-6" target="1c1d494c118603dd-6">
          <mxGeometry relative="1" as="geometry" />
        </mxCell>
        <mxCell id="MSK4sh7vPUqRXLUH3ntp-36" style="rounded=0;orthogonalLoop=1;jettySize=auto;html=1;exitX=0.5;exitY=1;exitDx=0;exitDy=0;entryX=0.5;entryY=0;entryDx=0;entryDy=0;entryPerimeter=0;" edge="1" parent="1c1d494c118603dd-1" source="MSK4sh7vPUqRXLUH3ntp-34" target="MSK4sh7vPUqRXLUH3ntp-32">
          <mxGeometry relative="1" as="geometry" />
        </mxCell>
        <mxCell id="MSK4sh7vPUqRXLUH3ntp-37" style="rounded=0;orthogonalLoop=1;jettySize=auto;html=1;exitX=0.5;exitY=1;exitDx=0;exitDy=0;entryX=0.5;entryY=0;entryDx=0;entryDy=0;entryPerimeter=0;" edge="1" parent="1c1d494c118603dd-1" source="MSK4sh7vPUqRXLUH3ntp-34" target="MSK4sh7vPUqRXLUH3ntp-33">
          <mxGeometry relative="1" as="geometry" />
        </mxCell>
        <mxCell id="1c1d494c118603dd-4" value="登录" style="swimlane;html=1;startSize=20;" parent="1c1d494c118603dd-1" vertex="1">
          <mxGeometry x="500" y="20" width="250" height="970" as="geometry" />
        </mxCell>
        <mxCell id="1c1d494c118603dd-27" style="edgeStyle=orthogonalEdgeStyle;rounded=0;html=1;labelBackgroundColor=none;startArrow=none;startFill=0;startSize=5;endArrow=classicThin;endFill=1;endSize=5;jettySize=auto;orthogonalLoop=1;strokeWidth=1;fontFamily=Verdana;fontSize=12" parent="1c1d494c118603dd-4" source="60571a20871a0731-4" target="60571a20871a0731-8" edge="1">
          <mxGeometry relative="1" as="geometry" />
        </mxCell>
        <mxCell id="60571a20871a0731-4" value="" style="ellipse;whiteSpace=wrap;html=1;rounded=0;shadow=0;comic=0;labelBackgroundColor=none;strokeWidth=1;fillColor=#000000;fontFamily=Verdana;fontSize=12;align=center;" parent="1c1d494c118603dd-4" vertex="1">
          <mxGeometry x="80" y="40" width="40" height="40" as="geometry" />
        </mxCell>
        <mxCell id="MSK4sh7vPUqRXLUH3ntp-1" style="edgeStyle=orthogonalEdgeStyle;rounded=0;orthogonalLoop=1;jettySize=auto;html=1;exitX=0.5;exitY=1;exitDx=0;exitDy=0;entryX=0.5;entryY=0;entryDx=0;entryDy=0;" edge="1" parent="1c1d494c118603dd-4" source="60571a20871a0731-8" target="60571a20871a0731-3">
          <mxGeometry relative="1" as="geometry" />
        </mxCell>
        <mxCell id="60571a20871a0731-8" value="Action" style="rounded=1;whiteSpace=wrap;html=1;shadow=0;comic=0;labelBackgroundColor=none;strokeWidth=1;fontFamily=Verdana;fontSize=12;align=center;arcSize=50;" parent="1c1d494c118603dd-4" vertex="1">
          <mxGeometry x="50" y="110" width="100" height="30" as="geometry" />
        </mxCell>
        <mxCell id="1c1d494c118603dd-33" style="rounded=0;html=1;labelBackgroundColor=none;startArrow=none;startFill=0;startSize=5;endArrow=classicThin;endFill=1;endSize=5;jettySize=auto;orthogonalLoop=1;strokeWidth=1;fontFamily=Verdana;fontSize=12" parent="1c1d494c118603dd-4" source="1c1d494c118603dd-5" target="1c1d494c118603dd-9" edge="1">
          <mxGeometry relative="1" as="geometry" />
        </mxCell>
        <mxCell id="1c1d494c118603dd-5" value="Action" style="rounded=1;whiteSpace=wrap;html=1;shadow=0;comic=0;labelBackgroundColor=none;strokeWidth=1;fontFamily=Verdana;fontSize=12;align=center;arcSize=50;" parent="1c1d494c118603dd-4" vertex="1">
          <mxGeometry x="45" y="200" width="100" height="30" as="geometry" />
        </mxCell>
        <mxCell id="MSK4sh7vPUqRXLUH3ntp-20" style="edgeStyle=orthogonalEdgeStyle;rounded=0;orthogonalLoop=1;jettySize=auto;html=1;exitX=0.5;exitY=1;exitDx=0;exitDy=0;entryX=0;entryY=0;entryDx=42.5;entryDy=0;entryPerimeter=0;" edge="1" parent="1c1d494c118603dd-4" source="1c1d494c118603dd-8" target="1c1d494c118603dd-22">
          <mxGeometry relative="1" as="geometry" />
        </mxCell>
        <mxCell id="1c1d494c118603dd-8" value="Action" style="rounded=1;whiteSpace=wrap;html=1;shadow=0;comic=0;labelBackgroundColor=none;strokeWidth=1;fontFamily=Verdana;fontSize=12;align=center;arcSize=50;" parent="1c1d494c118603dd-4" vertex="1">
          <mxGeometry x="85" y="330" width="100" height="30" as="geometry" />
        </mxCell>
        <mxCell id="1c1d494c118603dd-37" style="edgeStyle=none;rounded=0;html=1;labelBackgroundColor=none;startArrow=none;startFill=0;startSize=5;endArrow=classicThin;endFill=1;endSize=5;jettySize=auto;orthogonalLoop=1;strokeWidth=1;fontFamily=Verdana;fontSize=12" parent="1c1d494c118603dd-4" source="1c1d494c118603dd-9" target="1c1d494c118603dd-8" edge="1">
          <mxGeometry relative="1" as="geometry" />
        </mxCell>
        <mxCell id="1c1d494c118603dd-9" value="function" style="rounded=0;whiteSpace=wrap;html=1;shadow=0;comic=0;labelBackgroundColor=none;strokeWidth=1;fontFamily=Verdana;fontSize=12;align=center;arcSize=50;" parent="1c1d494c118603dd-4" vertex="1">
          <mxGeometry x="15" y="268" width="70" height="30" as="geometry" />
        </mxCell>
        <mxCell id="1c1d494c118603dd-44" style="edgeStyle=none;rounded=0;html=1;labelBackgroundColor=none;startArrow=none;startFill=0;startSize=5;endArrow=classicThin;endFill=1;endSize=5;jettySize=auto;orthogonalLoop=1;strokeWidth=1;fontFamily=Verdana;fontSize=12;exitX=0.5;exitY=1;exitDx=0;exitDy=0;entryX=0.5;entryY=0;entryDx=0;entryDy=0;" parent="1c1d494c118603dd-4" source="MSK4sh7vPUqRXLUH3ntp-40" target="60571a20871a0731-5" edge="1">
          <mxGeometry relative="1" as="geometry">
            <mxPoint x="120" y="699.9999999999998" as="sourcePoint" />
            <mxPoint x="139.87704918032796" y="799.9999999999998" as="targetPoint" />
          </mxGeometry>
        </mxCell>
        <mxCell id="60571a20871a0731-5" value="" style="shape=mxgraph.bpmn.shape;html=1;verticalLabelPosition=bottom;labelBackgroundColor=#ffffff;verticalAlign=top;perimeter=ellipsePerimeter;outline=end;symbol=terminate;rounded=0;shadow=0;comic=0;strokeWidth=1;fontFamily=Verdana;fontSize=12;align=center;" parent="1c1d494c118603dd-4" vertex="1">
          <mxGeometry x="120" y="900" width="40" height="40" as="geometry" />
        </mxCell>
        <mxCell id="1c1d494c118603dd-48" style="edgeStyle=none;rounded=0;html=1;dashed=1;labelBackgroundColor=none;startArrow=none;startFill=0;startSize=5;endArrow=oval;endFill=0;endSize=5;jettySize=auto;orthogonalLoop=1;strokeWidth=1;fontFamily=Verdana;fontSize=12" parent="1c1d494c118603dd-4" source="1c1d494c118603dd-20" target="1c1d494c118603dd-5" edge="1">
          <mxGeometry relative="1" as="geometry" />
        </mxCell>
        <mxCell id="1c1d494c118603dd-49" style="edgeStyle=none;rounded=0;html=1;dashed=1;labelBackgroundColor=none;startArrow=none;startFill=0;startSize=5;endArrow=oval;endFill=0;endSize=5;jettySize=auto;orthogonalLoop=1;strokeWidth=1;fontFamily=Verdana;fontSize=12" parent="1c1d494c118603dd-4" source="1c1d494c118603dd-20" target="1c1d494c118603dd-9" edge="1">
          <mxGeometry relative="1" as="geometry" />
        </mxCell>
        <mxCell id="1c1d494c118603dd-20" value="LoginPage" style="shape=note;whiteSpace=wrap;html=1;rounded=0;shadow=0;comic=0;labelBackgroundColor=none;strokeWidth=1;fontFamily=Verdana;fontSize=12;align=center;size=20;" parent="1c1d494c118603dd-4" vertex="1">
          <mxGeometry x="160" y="256" width="75" height="44" as="geometry" />
        </mxCell>
        <mxCell id="MSK4sh7vPUqRXLUH3ntp-60" style="edgeStyle=orthogonalEdgeStyle;rounded=0;orthogonalLoop=1;jettySize=auto;html=1;exitX=0.5;exitY=1;exitDx=0;exitDy=0;exitPerimeter=0;entryX=0.5;entryY=0;entryDx=0;entryDy=0;" edge="1" parent="1c1d494c118603dd-4" source="1c1d494c118603dd-22" target="MSK4sh7vPUqRXLUH3ntp-52">
          <mxGeometry relative="1" as="geometry" />
        </mxCell>
        <mxCell id="1c1d494c118603dd-22" value="HomePage" style="shape=note;whiteSpace=wrap;html=1;rounded=0;shadow=0;comic=0;labelBackgroundColor=none;strokeWidth=1;fontFamily=Verdana;fontSize=12;align=center;size=20;" parent="1c1d494c118603dd-4" vertex="1">
          <mxGeometry x="85" y="390" width="105" height="55" as="geometry" />
        </mxCell>
        <mxCell id="MSK4sh7vPUqRXLUH3ntp-56" style="edgeStyle=orthogonalEdgeStyle;rounded=0;orthogonalLoop=1;jettySize=auto;html=1;exitX=0.5;exitY=1;exitDx=0;exitDy=0;entryX=0.5;entryY=0;entryDx=0;entryDy=0;" edge="1" parent="1c1d494c118603dd-4" source="60571a20871a0731-3" target="1c1d494c118603dd-5">
          <mxGeometry relative="1" as="geometry" />
        </mxCell>
        <mxCell id="60571a20871a0731-3" value="" style="whiteSpace=wrap;html=1;rounded=0;shadow=0;comic=0;labelBackgroundColor=none;strokeWidth=1;fillColor=#000000;fontFamily=Verdana;fontSize=12;align=center;rotation=0;" parent="1c1d494c118603dd-4" vertex="1">
          <mxGeometry x="21.5" y="160" width="147" height="10" as="geometry" />
        </mxCell>
        <mxCell id="MSK4sh7vPUqRXLUH3ntp-40" value="outLogin" style="rounded=1;whiteSpace=wrap;html=1;shadow=0;comic=0;labelBackgroundColor=none;strokeWidth=1;fontFamily=Verdana;fontSize=12;align=center;arcSize=50;" vertex="1" parent="1c1d494c118603dd-4">
          <mxGeometry x="90" y="690" width="100" height="30" as="geometry" />
        </mxCell>
        <mxCell id="MSK4sh7vPUqRXLUH3ntp-57" style="edgeStyle=orthogonalEdgeStyle;rounded=0;orthogonalLoop=1;jettySize=auto;html=1;exitX=0.5;exitY=1;exitDx=0;exitDy=0;entryX=0.5;entryY=0;entryDx=0;entryDy=0;" edge="1" parent="1c1d494c118603dd-4" source="MSK4sh7vPUqRXLUH3ntp-52" target="MSK4sh7vPUqRXLUH3ntp-40">
          <mxGeometry relative="1" as="geometry" />
        </mxCell>
        <mxCell id="MSK4sh7vPUqRXLUH3ntp-59" style="edgeStyle=orthogonalEdgeStyle;rounded=0;orthogonalLoop=1;jettySize=auto;html=1;exitX=1;exitY=0.5;exitDx=0;exitDy=0;entryX=1;entryY=0.5;entryDx=0;entryDy=0;" edge="1" parent="1c1d494c118603dd-4" source="MSK4sh7vPUqRXLUH3ntp-52" target="60571a20871a0731-5">
          <mxGeometry relative="1" as="geometry" />
        </mxCell>
        <mxCell id="MSK4sh7vPUqRXLUH3ntp-52" value="if(state)" style="rhombus;whiteSpace=wrap;html=1;" vertex="1" parent="1c1d494c118603dd-4">
          <mxGeometry x="100" y="510" width="80" height="40" as="geometry" />
        </mxCell>
        <mxCell id="MSK4sh7vPUqRXLUH3ntp-44" style="rounded=0;orthogonalLoop=1;jettySize=auto;html=1;exitX=0.5;exitY=1;exitDx=0;exitDy=0;exitPerimeter=0;entryX=0.5;entryY=0;entryDx=0;entryDy=0;" edge="1" parent="1c1d494c118603dd-1" source="MSK4sh7vPUqRXLUH3ntp-32" target="MSK4sh7vPUqRXLUH3ntp-43">
          <mxGeometry relative="1" as="geometry" />
        </mxCell>
        <mxCell id="MSK4sh7vPUqRXLUH3ntp-49" style="edgeStyle=orthogonalEdgeStyle;rounded=0;orthogonalLoop=1;jettySize=auto;html=1;entryX=0;entryY=0.5;entryDx=0;entryDy=0;entryPerimeter=0;" edge="1" parent="1c1d494c118603dd-1" source="MSK4sh7vPUqRXLUH3ntp-42" target="1c1d494c118603dd-22">
          <mxGeometry relative="1" as="geometry">
            <mxPoint x="540" y="679.9999999999998" as="targetPoint" />
            <Array as="points">
              <mxPoint x="530" y="845" />
              <mxPoint x="530" y="438" />
            </Array>
          </mxGeometry>
        </mxCell>
      </root>
    </mxGraphModel>
  </diagram>
  <diagram id="2QgRLyJH4soQFVqg6gal" name="注册功能活动图">
    <mxGraphModel dx="1235" dy="684" grid="1" gridSize="10" guides="1" tooltips="1" connect="1" arrows="1" fold="1" page="1" pageScale="1" pageWidth="827" pageHeight="1169" math="0" shadow="0">
      <root>
        <mxCell id="0" />
        <mxCell id="1" parent="0" />
        <mxCell id="_1pK4f5f_YoNMYC3HIYG-1" value="在线音乐网站系统注册功能活动图" style="swimlane;html=1;childLayout=stackLayout;startSize=20;rounded=0;shadow=0;comic=0;labelBackgroundColor=none;strokeWidth=1;fontFamily=Verdana;fontSize=12;align=center;" vertex="1" parent="1">
          <mxGeometry x="40" y="20" width="750" height="990" as="geometry">
            <mxRectangle x="40" y="20" width="220" height="30" as="alternateBounds" />
          </mxGeometry>
        </mxCell>
        <mxCell id="_1pK4f5f_YoNMYC3HIYG-2" value="用户" style="swimlane;html=1;startSize=20;" vertex="1" parent="_1pK4f5f_YoNMYC3HIYG-1">
          <mxGeometry y="20" width="250" height="970" as="geometry" />
        </mxCell>
        <mxCell id="_1pK4f5f_YoNMYC3HIYG-4" value="comment" style="shape=note;whiteSpace=wrap;html=1;rounded=0;shadow=0;comic=0;labelBackgroundColor=none;strokeWidth=1;fontFamily=Verdana;fontSize=12;align=center;size=20;" vertex="1" parent="_1pK4f5f_YoNMYC3HIYG-2">
          <mxGeometry x="21.5" y="650" width="95" height="45" as="geometry" />
        </mxCell>
        <mxCell id="_1pK4f5f_YoNMYC3HIYG-5" style="rounded=0;orthogonalLoop=1;jettySize=auto;html=1;exitX=0.5;exitY=1;exitDx=0;exitDy=0;exitPerimeter=0;" edge="1" parent="_1pK4f5f_YoNMYC3HIYG-2" source="_1pK4f5f_YoNMYC3HIYG-6">
          <mxGeometry relative="1" as="geometry">
            <mxPoint x="250" y="739.9999999999998" as="targetPoint" />
          </mxGeometry>
        </mxCell>
        <mxCell id="_1pK4f5f_YoNMYC3HIYG-6" value="collect" style="shape=note;whiteSpace=wrap;html=1;rounded=0;shadow=0;comic=0;labelBackgroundColor=none;strokeWidth=1;fontFamily=Verdana;fontSize=12;align=center;size=20;" vertex="1" parent="_1pK4f5f_YoNMYC3HIYG-2">
          <mxGeometry x="141.5" y="650" width="95" height="45" as="geometry" />
        </mxCell>
        <mxCell id="ujUXegRyB3jiUdXfSm5i-12" value="Action" style="rounded=1;whiteSpace=wrap;html=1;shadow=0;comic=0;labelBackgroundColor=none;strokeWidth=1;fontFamily=Verdana;fontSize=12;align=center;arcSize=50;" vertex="1" parent="_1pK4f5f_YoNMYC3HIYG-2">
          <mxGeometry x="60" y="330" width="100" height="30" as="geometry" />
        </mxCell>
        <mxCell id="_1pK4f5f_YoNMYC3HIYG-35" style="rounded=0;orthogonalLoop=1;jettySize=auto;html=1;exitX=0.5;exitY=1;exitDx=0;exitDy=0;entryX=0.5;entryY=0;entryDx=0;entryDy=0;entryPerimeter=0;" edge="1" parent="_1pK4f5f_YoNMYC3HIYG-1" source="_1pK4f5f_YoNMYC3HIYG-27" target="_1pK4f5f_YoNMYC3HIYG-4">
          <mxGeometry relative="1" as="geometry" />
        </mxCell>
        <mxCell id="_1pK4f5f_YoNMYC3HIYG-36" style="rounded=0;orthogonalLoop=1;jettySize=auto;html=1;exitX=0.5;exitY=1;exitDx=0;exitDy=0;entryX=0.5;entryY=0;entryDx=0;entryDy=0;entryPerimeter=0;" edge="1" parent="_1pK4f5f_YoNMYC3HIYG-1" source="_1pK4f5f_YoNMYC3HIYG-27" target="_1pK4f5f_YoNMYC3HIYG-6">
          <mxGeometry relative="1" as="geometry" />
        </mxCell>
        <mxCell id="_1pK4f5f_YoNMYC3HIYG-7" value="管理员" style="swimlane;html=1;startSize=20;" vertex="1" parent="_1pK4f5f_YoNMYC3HIYG-1">
          <mxGeometry x="250" y="20" width="250" height="970" as="geometry" />
        </mxCell>
        <mxCell id="ujUXegRyB3jiUdXfSm5i-10" style="edgeStyle=orthogonalEdgeStyle;rounded=0;orthogonalLoop=1;jettySize=auto;html=1;exitX=0.5;exitY=1;exitDx=0;exitDy=0;entryX=0.5;entryY=0;entryDx=0;entryDy=0;entryPerimeter=0;" edge="1" parent="_1pK4f5f_YoNMYC3HIYG-7" source="_1pK4f5f_YoNMYC3HIYG-12" target="ujUXegRyB3jiUdXfSm5i-6">
          <mxGeometry relative="1" as="geometry" />
        </mxCell>
        <mxCell id="ujUXegRyB3jiUdXfSm5i-18" style="edgeStyle=orthogonalEdgeStyle;rounded=0;orthogonalLoop=1;jettySize=auto;html=1;entryX=1;entryY=0.5;entryDx=0;entryDy=0;" edge="1" parent="_1pK4f5f_YoNMYC3HIYG-7" source="_1pK4f5f_YoNMYC3HIYG-12" target="ujUXegRyB3jiUdXfSm5i-13">
          <mxGeometry relative="1" as="geometry" />
        </mxCell>
        <mxCell id="_1pK4f5f_YoNMYC3HIYG-12" value="if(success)" style="rhombus;whiteSpace=wrap;html=1;" vertex="1" parent="_1pK4f5f_YoNMYC3HIYG-7">
          <mxGeometry x="-26.5" y="447.5" width="80" height="40" as="geometry" />
        </mxCell>
        <mxCell id="ujUXegRyB3jiUdXfSm5i-9" style="edgeStyle=orthogonalEdgeStyle;rounded=0;orthogonalLoop=1;jettySize=auto;html=1;exitX=0.5;exitY=1;exitDx=0;exitDy=0;entryX=0.5;entryY=0;entryDx=0;entryDy=0;" edge="1" parent="_1pK4f5f_YoNMYC3HIYG-7" source="_1pK4f5f_YoNMYC3HIYG-16" target="_1pK4f5f_YoNMYC3HIYG-12">
          <mxGeometry relative="1" as="geometry" />
        </mxCell>
        <mxCell id="_1pK4f5f_YoNMYC3HIYG-16" value="" style="whiteSpace=wrap;html=1;rounded=0;shadow=0;comic=0;labelBackgroundColor=none;strokeWidth=1;fillColor=#000000;fontFamily=Verdana;fontSize=12;align=center;rotation=0;" vertex="1" parent="_1pK4f5f_YoNMYC3HIYG-7">
          <mxGeometry x="-60" y="407.5" width="147" height="10" as="geometry" />
        </mxCell>
        <mxCell id="_1pK4f5f_YoNMYC3HIYG-21" value="" style="rounded=0;orthogonalLoop=1;jettySize=auto;html=1;" edge="1" parent="_1pK4f5f_YoNMYC3HIYG-7" source="_1pK4f5f_YoNMYC3HIYG-22" target="_1pK4f5f_YoNMYC3HIYG-30">
          <mxGeometry relative="1" as="geometry" />
        </mxCell>
        <mxCell id="_1pK4f5f_YoNMYC3HIYG-22" value="personal info" style="shape=note;whiteSpace=wrap;html=1;rounded=0;shadow=0;comic=0;labelBackgroundColor=none;strokeWidth=1;fontFamily=Verdana;fontSize=12;align=center;size=20;" vertex="1" parent="_1pK4f5f_YoNMYC3HIYG-7">
          <mxGeometry x="21.5" y="650" width="95" height="45" as="geometry" />
        </mxCell>
        <mxCell id="_1pK4f5f_YoNMYC3HIYG-23" style="rounded=0;orthogonalLoop=1;jettySize=auto;html=1;exitX=0.5;exitY=1;exitDx=0;exitDy=0;exitPerimeter=0;entryX=0.5;entryY=0;entryDx=0;entryDy=0;" edge="1" parent="_1pK4f5f_YoNMYC3HIYG-7" source="_1pK4f5f_YoNMYC3HIYG-24" target="_1pK4f5f_YoNMYC3HIYG-30">
          <mxGeometry relative="1" as="geometry" />
        </mxCell>
        <mxCell id="_1pK4f5f_YoNMYC3HIYG-24" value="other" style="shape=note;whiteSpace=wrap;html=1;rounded=0;shadow=0;comic=0;labelBackgroundColor=none;strokeWidth=1;fontFamily=Verdana;fontSize=12;align=center;size=20;" vertex="1" parent="_1pK4f5f_YoNMYC3HIYG-7">
          <mxGeometry x="136.5" y="650" width="95" height="45" as="geometry" />
        </mxCell>
        <mxCell id="_1pK4f5f_YoNMYC3HIYG-25" style="rounded=0;orthogonalLoop=1;jettySize=auto;html=1;exitX=0.5;exitY=1;exitDx=0;exitDy=0;entryX=0.5;entryY=0;entryDx=0;entryDy=0;entryPerimeter=0;" edge="1" parent="_1pK4f5f_YoNMYC3HIYG-7" source="_1pK4f5f_YoNMYC3HIYG-27" target="_1pK4f5f_YoNMYC3HIYG-22">
          <mxGeometry relative="1" as="geometry" />
        </mxCell>
        <mxCell id="_1pK4f5f_YoNMYC3HIYG-26" style="rounded=0;orthogonalLoop=1;jettySize=auto;html=1;exitX=0.5;exitY=1;exitDx=0;exitDy=0;entryX=0.5;entryY=0;entryDx=0;entryDy=0;entryPerimeter=0;" edge="1" parent="_1pK4f5f_YoNMYC3HIYG-7" source="_1pK4f5f_YoNMYC3HIYG-27" target="_1pK4f5f_YoNMYC3HIYG-24">
          <mxGeometry relative="1" as="geometry" />
        </mxCell>
        <mxCell id="_1pK4f5f_YoNMYC3HIYG-27" value="" style="whiteSpace=wrap;html=1;rounded=0;shadow=0;comic=0;labelBackgroundColor=none;strokeWidth=1;fillColor=#000000;fontFamily=Verdana;fontSize=12;align=center;rotation=0;" vertex="1" parent="_1pK4f5f_YoNMYC3HIYG-7">
          <mxGeometry x="-72" y="600" width="147" height="10" as="geometry" />
        </mxCell>
        <mxCell id="_1pK4f5f_YoNMYC3HIYG-28" value="outLogin" style="rounded=1;whiteSpace=wrap;html=1;shadow=0;comic=0;labelBackgroundColor=none;strokeWidth=1;fontFamily=Verdana;fontSize=12;align=center;arcSize=50;" vertex="1" parent="_1pK4f5f_YoNMYC3HIYG-7">
          <mxGeometry x="-48.5" y="810" width="100" height="30" as="geometry" />
        </mxCell>
        <mxCell id="_1pK4f5f_YoNMYC3HIYG-29" style="edgeStyle=orthogonalEdgeStyle;rounded=0;orthogonalLoop=1;jettySize=auto;html=1;exitX=0.5;exitY=1;exitDx=0;exitDy=0;entryX=0.5;entryY=0;entryDx=0;entryDy=0;" edge="1" parent="_1pK4f5f_YoNMYC3HIYG-7" source="_1pK4f5f_YoNMYC3HIYG-30" target="_1pK4f5f_YoNMYC3HIYG-28">
          <mxGeometry relative="1" as="geometry" />
        </mxCell>
        <mxCell id="_1pK4f5f_YoNMYC3HIYG-30" value="" style="whiteSpace=wrap;html=1;rounded=0;shadow=0;comic=0;labelBackgroundColor=none;strokeWidth=1;fillColor=#000000;fontFamily=Verdana;fontSize=12;align=center;rotation=0;" vertex="1" parent="_1pK4f5f_YoNMYC3HIYG-7">
          <mxGeometry x="-72" y="740" width="147" height="10" as="geometry" />
        </mxCell>
        <mxCell id="ujUXegRyB3jiUdXfSm5i-20" style="edgeStyle=orthogonalEdgeStyle;rounded=0;orthogonalLoop=1;jettySize=auto;html=1;exitX=0.5;exitY=1;exitDx=0;exitDy=0;exitPerimeter=0;entryX=0.603;entryY=-0.016;entryDx=0;entryDy=0;entryPerimeter=0;" edge="1" parent="_1pK4f5f_YoNMYC3HIYG-7" source="ujUXegRyB3jiUdXfSm5i-6" target="_1pK4f5f_YoNMYC3HIYG-27">
          <mxGeometry relative="1" as="geometry" />
        </mxCell>
        <mxCell id="ujUXegRyB3jiUdXfSm5i-6" value="LoginPage" style="shape=note;whiteSpace=wrap;html=1;rounded=0;shadow=0;comic=0;labelBackgroundColor=none;strokeWidth=1;fontFamily=Verdana;fontSize=12;align=center;size=20;" vertex="1" parent="_1pK4f5f_YoNMYC3HIYG-7">
          <mxGeometry x="-39" y="507.5" width="105" height="55" as="geometry" />
        </mxCell>
        <mxCell id="ujUXegRyB3jiUdXfSm5i-14" style="rounded=0;orthogonalLoop=1;jettySize=auto;html=1;exitX=0.5;exitY=1;exitDx=0;exitDy=0;entryX=0.5;entryY=0;entryDx=0;entryDy=0;" edge="1" parent="_1pK4f5f_YoNMYC3HIYG-7" source="ujUXegRyB3jiUdXfSm5i-13" target="_1pK4f5f_YoNMYC3HIYG-16">
          <mxGeometry relative="1" as="geometry" />
        </mxCell>
        <mxCell id="ujUXegRyB3jiUdXfSm5i-13" value="Action" style="rounded=1;whiteSpace=wrap;html=1;shadow=0;comic=0;labelBackgroundColor=none;strokeWidth=1;fontFamily=Verdana;fontSize=12;align=center;arcSize=50;" vertex="1" parent="_1pK4f5f_YoNMYC3HIYG-7">
          <mxGeometry x="75" y="330" width="100" height="30" as="geometry" />
        </mxCell>
        <mxCell id="_1pK4f5f_YoNMYC3HIYG-37" value="注册" style="swimlane;html=1;startSize=20;" vertex="1" parent="_1pK4f5f_YoNMYC3HIYG-1">
          <mxGeometry x="500" y="20" width="250" height="970" as="geometry" />
        </mxCell>
        <mxCell id="_1pK4f5f_YoNMYC3HIYG-38" style="edgeStyle=orthogonalEdgeStyle;rounded=0;html=1;labelBackgroundColor=none;startArrow=none;startFill=0;startSize=5;endArrow=classicThin;endFill=1;endSize=5;jettySize=auto;orthogonalLoop=1;strokeWidth=1;fontFamily=Verdana;fontSize=12" edge="1" parent="_1pK4f5f_YoNMYC3HIYG-37" source="_1pK4f5f_YoNMYC3HIYG-39" target="_1pK4f5f_YoNMYC3HIYG-41">
          <mxGeometry relative="1" as="geometry" />
        </mxCell>
        <mxCell id="_1pK4f5f_YoNMYC3HIYG-39" value="" style="ellipse;whiteSpace=wrap;html=1;rounded=0;shadow=0;comic=0;labelBackgroundColor=none;strokeWidth=1;fillColor=#000000;fontFamily=Verdana;fontSize=12;align=center;" vertex="1" parent="_1pK4f5f_YoNMYC3HIYG-37">
          <mxGeometry x="80" y="40" width="40" height="40" as="geometry" />
        </mxCell>
        <mxCell id="ujUXegRyB3jiUdXfSm5i-11" style="edgeStyle=orthogonalEdgeStyle;rounded=0;orthogonalLoop=1;jettySize=auto;html=1;exitX=0.5;exitY=1;exitDx=0;exitDy=0;entryX=0.5;entryY=0;entryDx=0;entryDy=0;" edge="1" parent="_1pK4f5f_YoNMYC3HIYG-37" source="_1pK4f5f_YoNMYC3HIYG-41" target="_1pK4f5f_YoNMYC3HIYG-43">
          <mxGeometry relative="1" as="geometry" />
        </mxCell>
        <mxCell id="_1pK4f5f_YoNMYC3HIYG-41" value="Action" style="rounded=1;whiteSpace=wrap;html=1;shadow=0;comic=0;labelBackgroundColor=none;strokeWidth=1;fontFamily=Verdana;fontSize=12;align=center;arcSize=50;" vertex="1" parent="_1pK4f5f_YoNMYC3HIYG-37">
          <mxGeometry x="50" y="110" width="100" height="30" as="geometry" />
        </mxCell>
        <mxCell id="_1pK4f5f_YoNMYC3HIYG-42" style="rounded=0;html=1;labelBackgroundColor=none;startArrow=none;startFill=0;startSize=5;endArrow=classicThin;endFill=1;endSize=5;jettySize=auto;orthogonalLoop=1;strokeWidth=1;fontFamily=Verdana;fontSize=12" edge="1" parent="_1pK4f5f_YoNMYC3HIYG-37" source="_1pK4f5f_YoNMYC3HIYG-43" target="_1pK4f5f_YoNMYC3HIYG-47">
          <mxGeometry relative="1" as="geometry" />
        </mxCell>
        <mxCell id="_1pK4f5f_YoNMYC3HIYG-43" value="Action" style="rounded=1;whiteSpace=wrap;html=1;shadow=0;comic=0;labelBackgroundColor=none;strokeWidth=1;fontFamily=Verdana;fontSize=12;align=center;arcSize=50;" vertex="1" parent="_1pK4f5f_YoNMYC3HIYG-37">
          <mxGeometry x="50" y="200" width="100" height="30" as="geometry" />
        </mxCell>
        <mxCell id="mxtYsEm7Ca5Dhe5xN9og-3" style="edgeStyle=orthogonalEdgeStyle;rounded=0;orthogonalLoop=1;jettySize=auto;html=1;entryX=0.5;entryY=0;entryDx=0;entryDy=0;entryPerimeter=0;" edge="1" parent="_1pK4f5f_YoNMYC3HIYG-37" source="_1pK4f5f_YoNMYC3HIYG-47" target="b72d9rJpVFZXBGrxeJwo-1">
          <mxGeometry relative="1" as="geometry">
            <Array as="points">
              <mxPoint x="60" y="350" />
              <mxPoint x="140" y="350" />
            </Array>
          </mxGeometry>
        </mxCell>
        <mxCell id="_1pK4f5f_YoNMYC3HIYG-47" value="function" style="rounded=0;whiteSpace=wrap;html=1;shadow=0;comic=0;labelBackgroundColor=none;strokeWidth=1;fontFamily=Verdana;fontSize=12;align=center;arcSize=50;" vertex="1" parent="_1pK4f5f_YoNMYC3HIYG-37">
          <mxGeometry x="15" y="268" width="70" height="30" as="geometry" />
        </mxCell>
        <mxCell id="_1pK4f5f_YoNMYC3HIYG-48" style="edgeStyle=none;rounded=0;html=1;labelBackgroundColor=none;startArrow=none;startFill=0;startSize=5;endArrow=classicThin;endFill=1;endSize=5;jettySize=auto;orthogonalLoop=1;strokeWidth=1;fontFamily=Verdana;fontSize=12;exitX=0.5;exitY=1;exitDx=0;exitDy=0;entryX=0.5;entryY=0;entryDx=0;entryDy=0;" edge="1" parent="_1pK4f5f_YoNMYC3HIYG-37" source="_1pK4f5f_YoNMYC3HIYG-57" target="_1pK4f5f_YoNMYC3HIYG-49">
          <mxGeometry relative="1" as="geometry">
            <mxPoint x="120" y="699.9999999999998" as="sourcePoint" />
            <mxPoint x="139.87704918032796" y="799.9999999999998" as="targetPoint" />
          </mxGeometry>
        </mxCell>
        <mxCell id="_1pK4f5f_YoNMYC3HIYG-49" value="" style="shape=mxgraph.bpmn.shape;html=1;verticalLabelPosition=bottom;labelBackgroundColor=#ffffff;verticalAlign=top;perimeter=ellipsePerimeter;outline=end;symbol=terminate;rounded=0;shadow=0;comic=0;strokeWidth=1;fontFamily=Verdana;fontSize=12;align=center;" vertex="1" parent="_1pK4f5f_YoNMYC3HIYG-37">
          <mxGeometry x="120" y="900" width="40" height="40" as="geometry" />
        </mxCell>
        <mxCell id="_1pK4f5f_YoNMYC3HIYG-50" style="edgeStyle=none;rounded=0;html=1;dashed=1;labelBackgroundColor=none;startArrow=none;startFill=0;startSize=5;endArrow=oval;endFill=0;endSize=5;jettySize=auto;orthogonalLoop=1;strokeWidth=1;fontFamily=Verdana;fontSize=12" edge="1" parent="_1pK4f5f_YoNMYC3HIYG-37" source="_1pK4f5f_YoNMYC3HIYG-52" target="_1pK4f5f_YoNMYC3HIYG-43">
          <mxGeometry relative="1" as="geometry" />
        </mxCell>
        <mxCell id="_1pK4f5f_YoNMYC3HIYG-51" style="edgeStyle=none;rounded=0;html=1;dashed=1;labelBackgroundColor=none;startArrow=none;startFill=0;startSize=5;endArrow=oval;endFill=0;endSize=5;jettySize=auto;orthogonalLoop=1;strokeWidth=1;fontFamily=Verdana;fontSize=12" edge="1" parent="_1pK4f5f_YoNMYC3HIYG-37" source="_1pK4f5f_YoNMYC3HIYG-52" target="_1pK4f5f_YoNMYC3HIYG-47">
          <mxGeometry relative="1" as="geometry" />
        </mxCell>
        <mxCell id="_1pK4f5f_YoNMYC3HIYG-52" value="RegiterPage" style="shape=note;whiteSpace=wrap;html=1;rounded=0;shadow=0;comic=0;labelBackgroundColor=none;strokeWidth=1;fontFamily=Verdana;fontSize=12;align=center;size=20;" vertex="1" parent="_1pK4f5f_YoNMYC3HIYG-37">
          <mxGeometry x="160" y="256" width="75" height="44" as="geometry" />
        </mxCell>
        <mxCell id="_1pK4f5f_YoNMYC3HIYG-57" value="outLogin" style="rounded=1;whiteSpace=wrap;html=1;shadow=0;comic=0;labelBackgroundColor=none;strokeWidth=1;fontFamily=Verdana;fontSize=12;align=center;arcSize=50;" vertex="1" parent="_1pK4f5f_YoNMYC3HIYG-37">
          <mxGeometry x="90" y="690" width="100" height="30" as="geometry" />
        </mxCell>
        <mxCell id="_1pK4f5f_YoNMYC3HIYG-58" style="edgeStyle=orthogonalEdgeStyle;rounded=0;orthogonalLoop=1;jettySize=auto;html=1;exitX=0.5;exitY=1;exitDx=0;exitDy=0;entryX=0.5;entryY=0;entryDx=0;entryDy=0;" edge="1" parent="_1pK4f5f_YoNMYC3HIYG-37" source="_1pK4f5f_YoNMYC3HIYG-60" target="_1pK4f5f_YoNMYC3HIYG-57">
          <mxGeometry relative="1" as="geometry" />
        </mxCell>
        <mxCell id="_1pK4f5f_YoNMYC3HIYG-59" style="edgeStyle=orthogonalEdgeStyle;rounded=0;orthogonalLoop=1;jettySize=auto;html=1;exitX=1;exitY=0.5;exitDx=0;exitDy=0;entryX=1;entryY=0.5;entryDx=0;entryDy=0;" edge="1" parent="_1pK4f5f_YoNMYC3HIYG-37" source="_1pK4f5f_YoNMYC3HIYG-60" target="_1pK4f5f_YoNMYC3HIYG-49">
          <mxGeometry relative="1" as="geometry" />
        </mxCell>
        <mxCell id="_1pK4f5f_YoNMYC3HIYG-60" value="if(state)" style="rhombus;whiteSpace=wrap;html=1;" vertex="1" parent="_1pK4f5f_YoNMYC3HIYG-37">
          <mxGeometry x="100" y="510" width="80" height="40" as="geometry" />
        </mxCell>
        <mxCell id="mxtYsEm7Ca5Dhe5xN9og-1" style="edgeStyle=orthogonalEdgeStyle;rounded=0;orthogonalLoop=1;jettySize=auto;html=1;entryX=0.5;entryY=0;entryDx=0;entryDy=0;" edge="1" parent="_1pK4f5f_YoNMYC3HIYG-37" source="b72d9rJpVFZXBGrxeJwo-1" target="_1pK4f5f_YoNMYC3HIYG-60">
          <mxGeometry relative="1" as="geometry" />
        </mxCell>
        <mxCell id="b72d9rJpVFZXBGrxeJwo-1" value="HomePage" style="shape=note;whiteSpace=wrap;html=1;rounded=0;shadow=0;comic=0;labelBackgroundColor=none;strokeWidth=1;fontFamily=Verdana;fontSize=12;align=center;size=20;" vertex="1" parent="_1pK4f5f_YoNMYC3HIYG-37">
          <mxGeometry x="87.5" y="390" width="105" height="55" as="geometry" />
        </mxCell>
        <mxCell id="_1pK4f5f_YoNMYC3HIYG-61" style="rounded=0;orthogonalLoop=1;jettySize=auto;html=1;exitX=0.5;exitY=1;exitDx=0;exitDy=0;exitPerimeter=0;entryX=0.5;entryY=0;entryDx=0;entryDy=0;" edge="1" parent="_1pK4f5f_YoNMYC3HIYG-1" source="_1pK4f5f_YoNMYC3HIYG-4" target="_1pK4f5f_YoNMYC3HIYG-30">
          <mxGeometry relative="1" as="geometry" />
        </mxCell>
        <mxCell id="ujUXegRyB3jiUdXfSm5i-15" style="rounded=0;orthogonalLoop=1;jettySize=auto;html=1;exitX=0.5;exitY=1;exitDx=0;exitDy=0;entryX=0.467;entryY=0.035;entryDx=0;entryDy=0;entryPerimeter=0;" edge="1" parent="_1pK4f5f_YoNMYC3HIYG-1" source="ujUXegRyB3jiUdXfSm5i-12" target="_1pK4f5f_YoNMYC3HIYG-16">
          <mxGeometry relative="1" as="geometry">
            <mxPoint x="260" y="430" as="targetPoint" />
          </mxGeometry>
        </mxCell>
        <mxCell id="ujUXegRyB3jiUdXfSm5i-16" style="rounded=0;orthogonalLoop=1;jettySize=auto;html=1;exitX=0.5;exitY=1;exitDx=0;exitDy=0;entryX=0.5;entryY=0;entryDx=0;entryDy=0;" edge="1" parent="_1pK4f5f_YoNMYC3HIYG-1" source="_1pK4f5f_YoNMYC3HIYG-47" target="ujUXegRyB3jiUdXfSm5i-12">
          <mxGeometry relative="1" as="geometry" />
        </mxCell>
        <mxCell id="ujUXegRyB3jiUdXfSm5i-17" style="rounded=0;orthogonalLoop=1;jettySize=auto;html=1;exitX=0.5;exitY=1;exitDx=0;exitDy=0;entryX=0.5;entryY=0;entryDx=0;entryDy=0;" edge="1" parent="_1pK4f5f_YoNMYC3HIYG-1" source="_1pK4f5f_YoNMYC3HIYG-47" target="ujUXegRyB3jiUdXfSm5i-13">
          <mxGeometry relative="1" as="geometry" />
        </mxCell>
        <mxCell id="ujUXegRyB3jiUdXfSm5i-19" style="edgeStyle=orthogonalEdgeStyle;rounded=0;orthogonalLoop=1;jettySize=auto;html=1;exitX=0;exitY=0.5;exitDx=0;exitDy=0;entryX=0;entryY=0.5;entryDx=0;entryDy=0;" edge="1" parent="_1pK4f5f_YoNMYC3HIYG-1" source="_1pK4f5f_YoNMYC3HIYG-12" target="ujUXegRyB3jiUdXfSm5i-12">
          <mxGeometry relative="1" as="geometry" />
        </mxCell>
        <mxCell id="mxtYsEm7Ca5Dhe5xN9og-2" style="edgeStyle=orthogonalEdgeStyle;rounded=0;orthogonalLoop=1;jettySize=auto;html=1;entryX=0;entryY=0.5;entryDx=0;entryDy=0;entryPerimeter=0;" edge="1" parent="_1pK4f5f_YoNMYC3HIYG-1" source="_1pK4f5f_YoNMYC3HIYG-28" target="b72d9rJpVFZXBGrxeJwo-1">
          <mxGeometry relative="1" as="geometry">
            <Array as="points">
              <mxPoint x="540" y="845" />
              <mxPoint x="540" y="438" />
            </Array>
          </mxGeometry>
        </mxCell>
      </root>
    </mxGraphModel>
  </diagram>
</mxfile>
